<svg id="Layer_1" data-name="Layer 1" xmlns="http://www.w3.org/2000/svg" width="256" height="256" viewBox="0 0 256 256">
  <defs>
    <style>
      .cls-1 {
        fill: #bdbdbd;
      }
    </style>
  </defs>
  <title>client-1</title>
  <rect class="cls-1" width="256" height="256"/>
  <g>
    <path d="M660.75,332.78v-1.94l2.48-2.41c6-5.69,8.67-8.71,8.71-12.24,0-2.38-1.15-4.57-4.64-4.57a8,8,0,0,0-5,2l-1-2.23A10.26,10.26,0,0,1,668,309c5,0,7.16,3.46,7.16,6.8,0,4.32-3.13,7.81-8.06,12.56l-1.87,1.73v0.07h10.51v2.63H660.75Z" transform="translate(-594.87 -194.22)"/>
    <path d="M693.19,312h-8.93l-0.9,6a12.54,12.54,0,0,1,1.91-.14,9.89,9.89,0,0,1,5,1.26,6.67,6.67,0,0,1,3.35,6c0,4.57-3.64,8-8.71,8a11.45,11.45,0,0,1-5.83-1.44l0.79-2.41a10.48,10.48,0,0,0,5,1.3c3,0,5.54-1.94,5.54-5.08s-2.05-5.18-6.73-5.18a24.23,24.23,0,0,0-3.24.25L682,309.39h11.2V312Z" transform="translate(-594.87 -194.22)"/>
    <path d="M711,311.62a11.45,11.45,0,0,0-2.37.14,9.51,9.51,0,0,0-8.14,8.31h0.11a7,7,0,0,1,5.65-2.7c4.14,0,7.06,3,7.06,7.56,0,4.28-2.92,8.24-7.77,8.24s-8.28-3.89-8.28-10a14.71,14.71,0,0,1,4-10.55,12.73,12.73,0,0,1,7.49-3.46A15.2,15.2,0,0,1,711,309v2.59Zm-0.9,13.5c0-3.35-1.91-5.36-4.82-5.36a5.21,5.21,0,0,0-4.54,2.88,2.7,2.7,0,0,0-.36,1.4c0.07,3.85,1.84,6.7,5.15,6.7C708.3,330.73,710.14,328.46,710.14,325.12Z" transform="translate(-594.87 -194.22)"/>
    <path d="M718.64,315.36l2.48,3.74c0.65,1,1.19,1.87,1.76,2.84H723c0.58-1,1.15-1.94,1.73-2.88l2.45-3.71h3.42l-5.94,8.42,6.12,9h-3.6l-2.55-3.92c-0.68-1-1.26-2-1.87-3h-0.07c-0.58,1-1.19,2-1.83,3l-2.52,3.92h-3.49l6.19-8.89-5.9-8.53h3.53Z" transform="translate(-594.87 -194.22)"/>
    <path d="M732.82,332.78v-1.94l2.48-2.41c6-5.69,8.67-8.71,8.71-12.24,0-2.38-1.15-4.57-4.64-4.57a8,8,0,0,0-5,2l-1-2.23A10.26,10.26,0,0,1,740,309c5,0,7.16,3.46,7.16,6.8,0,4.32-3.13,7.81-8.06,12.56l-1.87,1.73v0.07h10.51v2.63H732.82Z" transform="translate(-594.87 -194.22)"/>
    <path d="M765.26,312h-8.93l-0.9,6a12.54,12.54,0,0,1,1.91-.14,9.89,9.89,0,0,1,5,1.26,6.67,6.67,0,0,1,3.35,6c0,4.57-3.64,8-8.71,8a11.45,11.45,0,0,1-5.83-1.44l0.79-2.41a10.48,10.48,0,0,0,5,1.3c3,0,5.54-1.94,5.54-5.08s-2.05-5.18-6.73-5.18a24.23,24.23,0,0,0-3.24.25l1.51-11.23h11.2V312Z" transform="translate(-594.87 -194.22)"/>
    <path d="M783.11,311.62a11.45,11.45,0,0,0-2.37.14,9.51,9.51,0,0,0-8.14,8.31h0.11a7,7,0,0,1,5.65-2.7c4.14,0,7.06,3,7.06,7.56,0,4.28-2.92,8.24-7.77,8.24s-8.28-3.89-8.28-10a14.71,14.71,0,0,1,4-10.55,12.73,12.73,0,0,1,7.49-3.46,15.2,15.2,0,0,1,2.3-.18v2.59Zm-0.9,13.5c0-3.35-1.91-5.36-4.82-5.36a5.21,5.21,0,0,0-4.54,2.88,2.7,2.7,0,0,0-.36,1.4c0.07,3.85,1.84,6.7,5.15,6.7C780.38,330.73,782.21,328.46,782.21,325.12Z" transform="translate(-594.87 -194.22)"/>
  </g>
</svg>
