<svg id="Layer_1" data-name="Layer 1" xmlns="http://www.w3.org/2000/svg" width="55" height="82.5" viewBox="0 0 55 82.5"><defs><style>.cls-1{fill:#31aff5}.cls-2{fill:#30a7e9}</style></defs><title>flag</title><path class="cls-1" d="M640 359.75a27.44 27.44 0 0 0-24 40.93c.37.66.76 1.31 1.18 1.94L640 442.25l22.77-39.64c.35-.52.65-1.07 1-1.61l.22-.32A27.44 27.44 0 0 0 640 359.75zm0 13.75a13.75 13.75 0 1 1-13.75 13.75A13.75 13.75 0 0 1 640 373.5z" transform="translate(-612.5 -359.75)"/><path class="cls-2" d="M640 370.06a17.19 17.19 0 1 0 17.19 17.19A17.19 17.19 0 0 0 640 370.06zm0 6.88a10.31 10.31 0 1 1-10.31 10.31A10.31 10.31 0 0 1 640 376.94z" transform="translate(-612.5 -359.75)"/></svg>