<svg width="118" height="118" viewBox="0 0 118 118" version="1.1" xmlns="http://www.w3.org/2000/svg" xmlns:xlink="http://www.w3.org/1999/xlink" xmlns:figma="http://www.figma.com/figma/ns">
<title>Group</title>
<desc>Created using Figma</desc>
<g id="Canvas" transform="matrix(2 0 0 2 -402 2974)" figma:type="canvas">
<g id="Group" style="mix-blend-mode:normal;" figma:type="frame">
<g id="Ellipse 10" style="mix-blend-mode:normal;" figma:type="ellipse">
<use xlink:href="#path0_fill" transform="translate(201 -1487)" fill="#606060" style="mix-blend-mode:normal;"/>
</g>
<g id="S" style="mix-blend-mode:normal;" figma:type="text">
<use xlink:href="#path1_fill" transform="translate(219 -1481)" fill="#FFFFFF" style="mix-blend-mode:normal;"/>
</g>
</g>
</g>
<defs>
<path id="path0_fill" d="M 59 29.5C 59 45.7924 45.7924 59 29.5 59C 13.2076 59 0 45.7924 0 29.5C 0 13.2076 13.2076 0 29.5 0C 45.7924 0 59 13.2076 59 29.5Z"/>
<path id="path1_fill" d="M 17.255 16.73C 16.5083 16.1233 15.7617 15.68 15.015 15.4C 14.2683 15.0967 13.545 14.945 12.845 14.945C 11.9583 14.945 11.235 15.155 10.675 15.575C 10.115 15.995 9.835 16.5433 9.835 17.22C 9.835 17.6867 9.975 18.0717 10.255 18.375C 10.535 18.6783 10.8967 18.9467 11.34 19.18C 11.8067 19.39 12.32 19.5767 12.88 19.74C 13.4633 19.9033 14.035 20.0783 14.595 20.265C 16.835 21.0117 18.4683 22.015 19.495 23.275C 20.545 24.5117 21.07 26.1333 21.07 28.14C 21.07 29.4933 20.8367 30.7183 20.37 31.815C 19.9267 32.9117 19.2617 33.8567 18.375 34.65C 17.5117 35.42 16.4383 36.015 15.155 36.435C 13.895 36.8783 12.46 37.1 10.85 37.1C 7.51333 37.1 4.42167 36.1083 1.575 34.125L 4.515 28.595C 5.54167 29.505 6.55667 30.1817 7.56 30.625C 8.56333 31.0683 9.555 31.29 10.535 31.29C 11.655 31.29 12.4833 31.0333 13.02 30.52C 13.58 30.0067 13.86 29.4233 13.86 28.77C 13.86 28.3733 13.79 28.035 13.65 27.755C 13.51 27.4517 13.2767 27.1833 12.95 26.95C 12.6233 26.6933 12.1917 26.46 11.655 26.25C 11.1417 26.04 10.5117 25.8067 9.765 25.55C 8.87833 25.27 8.00333 24.9667 7.14 24.64C 6.3 24.29 5.54167 23.835 4.865 23.275C 4.21167 22.715 3.675 22.015 3.255 21.175C 2.85833 20.3117 2.66 19.2267 2.66 17.92C 2.66 16.6133 2.87 15.435 3.29 14.385C 3.73333 13.3117 4.34 12.4017 5.11 11.655C 5.90333 10.885 6.86 10.29 7.98 9.87C 9.12333 9.45 10.395 9.24 11.795 9.24C 13.1017 9.24 14.4667 9.42667 15.89 9.8C 17.3133 10.15 18.6783 10.675 19.985 11.375L 17.255 16.73Z"/>
</defs>
</svg>
