<svg width="116.43" height="33.12" xmlns="http://www.w3.org/2000/svg">
 <defs>
  <style>.cls-1{fill:#31aff5}.cls-2{fill:#091d25}</style>
 </defs>
 <title>logo-nav</title>
 <g>
  <title>background</title>
  <rect fill="none" id="canvas_background" height="402" width="582" y="-1" x="-1"/>
 </g>
 <g>
  <title>Layer 1</title>
  <path fill="none" id="svg_1" d="m32.339996,28.770012l-28,0l0,-28a0.75,0.75 0 0 0 -1.5,0l0,28l-2.1,0a0.75,0.75 0 0 0 0,1.5l2.1,0l0,2.1a0.75,0.75 0 1 0 1.5,0l0,-2.1l28,0a0.75,0.75 0 1 0 0,-1.5zm0,0" class="cls-1"/>
  <path fill="none" id="svg_2" d="m8.389996,27.270012a2.55,2.55 0 0 0 2.07,-4l4.34,-5.27a2.54,2.54 0 0 0 2.66,-0.45l3.22,2a2.55,2.55 0 1 0 4.2,-1.24l5.24,-10.91a2.55,2.55 0 1 0 -1.34,-0.67l-5.25,10.94l-0.38,0a2.54,2.54 0 0 0 -1.69,0.64l-3.22,-2a2.55,2.55 0 1 0 -4.6,0.77l-4.38,5.32a2.55,2.55 0 1 0 -0.87,4.94l0,-0.07zm22.15,-23.45a1.05,1.05 0 1 1 -1.05,1.05a1.05,1.05 0 0 1 1.05,-1.05zm-7.38,15.3a1.05,1.05 0 1 1 -1.05,1.05a1.05,1.05 0 0 1 1.05,-1.05zm-7.38,-4.5a1.05,1.05 0 1 1 -1.05,1.05a1.05,1.05 0 0 1 1.05,-1.05zm-7.38,9.11a1.05,1.05 0 1 1 -1.05,1.05a1.05,1.05 0 0 1 1.05,-1.05zm0,0" class="cls-1"/>
  <g fill="none" id="svg_3">
   <text font-style="normal" xml:space="preserve" text-anchor="start" font-family="Euphoria, sans-serif" font-size="24" id="svg_7" y="25.122323" x="42.374128" fill-opacity="null" stroke-opacity="null" stroke-width="0" stroke="null" fill="#ffffff">Scalia</text>
  </g>
 </g>
</svg>