<svg id="Layer_1" data-name="Layer 1" xmlns="http://www.w3.org/2000/svg" xmlns:xlink="http://www.w3.org/1999/xlink" width="135" height="40" viewBox="0 0 135 40"><defs><style>.cls-1{fill:#a6a6a6;}.cls-10,.cls-2,.cls-3{fill:#fff;}.cls-2{stroke:#fff;stroke-miterlimit:10;stroke-width:0.2px;}.cls-4{fill:url(#linear-gradient);}.cls-5{fill:url(#linear-gradient-2);}.cls-6{fill:url(#linear-gradient-3);}.cls-7{fill:url(#linear-gradient-4);}.cls-8{opacity:0.2;}.cls-10,.cls-8,.cls-9{isolation:isolate;}.cls-9{opacity:0.12;}.cls-10{opacity:0.25;}</style><linearGradient id="linear-gradient" x1="581.98" y1="497.72" x2="565.19" y2="480.93" gradientTransform="matrix(1, 0, 0, -1, 0, 802)" gradientUnits="userSpaceOnUse"><stop offset="0" stop-color="#00a0ff"/><stop offset="0.01" stop-color="#00a1ff"/><stop offset="0.26" stop-color="#00beff"/><stop offset="0.51" stop-color="#00d2ff"/><stop offset="0.76" stop-color="#00dfff"/><stop offset="1" stop-color="#00e3ff"/></linearGradient><linearGradient id="linear-gradient-2" x1="594.01" y1="486.43" x2="569.81" y2="486.43" gradientTransform="matrix(1, 0, 0, -1, 0, 802)" gradientUnits="userSpaceOnUse"><stop offset="0" stop-color="#ffe000"/><stop offset="0.41" stop-color="#ffbd00"/><stop offset="0.78" stop-color="orange"/><stop offset="1" stop-color="#ff9c00"/></linearGradient><linearGradient id="linear-gradient-3" x1="585" y1="484.13" x2="562.25" y2="461.37" gradientTransform="matrix(1, 0, 0, -1, 0, 802)" gradientUnits="userSpaceOnUse"><stop offset="0" stop-color="#ff3a44"/><stop offset="1" stop-color="#c31162"/></linearGradient><linearGradient id="linear-gradient-4" x1="567.47" y1="506.25" x2="577.64" y2="496.09" gradientTransform="matrix(1, 0, 0, -1, 0, 802)" gradientUnits="userSpaceOnUse"><stop offset="0" stop-color="#32a071"/><stop offset="0.07" stop-color="#2da771"/><stop offset="0.48" stop-color="#15cf74"/><stop offset="0.8" stop-color="#06e775"/><stop offset="1" stop-color="#00f076"/></linearGradient></defs><title>play-store-btn</title><rect width="135" height="40" rx="5" ry="5"/><path class="cls-1" d="M690.18,296.37a4.2,4.2,0,0,1,4.2,4.2v30a4.2,4.2,0,0,1-4.2,4.2h-125a4.2,4.2,0,0,1-4.2-4.2v-30a4.2,4.2,0,0,1,4.2-4.2h125m0-.8h-125a5,5,0,0,0-5,5v30a5,5,0,0,0,5,5h125a5,5,0,0,0,5-5v-30a5,5,0,0,0-5-5h0Z" transform="translate(-560.18 -295.57)"/><path class="cls-2" d="M607.6,305.82a2.71,2.71,0,0,1-.75,2,2.91,2.91,0,0,1-2.2.89,3.13,3.13,0,1,1,0-6.27,3.1,3.1,0,0,1,1.23.25,2.47,2.47,0,0,1,.94.67l-0.53.53a2,2,0,0,0-1.64-.71,2.4,2.4,0,1,0,1.68,4.12,1.89,1.89,0,0,0,.5-1.22h-2.18v-0.72h2.91A2.54,2.54,0,0,1,607.6,305.82Z" transform="translate(-560.18 -295.57)"/><path class="cls-2" d="M612.21,303.31h-2.73v1.9h2.46v0.72h-2.46v1.9h2.73v0.74h-3.5v-6h3.5v0.74Z" transform="translate(-560.18 -295.57)"/><path class="cls-2" d="M615.46,308.57h-0.77v-5.26H613v-0.74h4.12v0.74h-1.68v5.26Z" transform="translate(-560.18 -295.57)"/><path class="cls-2" d="M620.12,308.57v-6h0.77v6h-0.77Z" transform="translate(-560.18 -295.57)"/><path class="cls-2" d="M624.31,308.57h-0.77v-5.26h-1.68v-0.74H626v0.74h-1.68v5.26Z" transform="translate(-560.18 -295.57)"/><path class="cls-2" d="M633.79,307.8a3.12,3.12,0,0,1-4.4,0,3.24,3.24,0,0,1,0-4.45,3.1,3.1,0,0,1,4.4,0A3.23,3.23,0,0,1,633.79,307.8Zm-3.83-.5a2.31,2.31,0,0,0,3.26,0,2.56,2.56,0,0,0,0-3.44,2.31,2.31,0,0,0-3.26,0A2.56,2.56,0,0,0,630,307.3Z" transform="translate(-560.18 -295.57)"/><path class="cls-2" d="M635.75,308.57v-6h0.94l2.92,4.67h0l0-1.16v-3.51h0.77v6h-0.8l-3.05-4.89h0l0,1.16v3.74h-0.77Z" transform="translate(-560.18 -295.57)"/><path class="cls-3" d="M628.31,317.32a4.25,4.25,0,1,0,4.27,4.25A4.19,4.19,0,0,0,628.31,317.32Zm0,6.83a2.58,2.58,0,1,1,2.4-2.58A2.46,2.46,0,0,1,628.31,324.16ZM619,317.32a4.25,4.25,0,1,0,4.27,4.25A4.19,4.19,0,0,0,619,317.32Zm0,6.83a2.58,2.58,0,1,1,2.4-2.58A2.46,2.46,0,0,1,619,324.16Zm-11.08-5.53v1.8h4.32a3.77,3.77,0,0,1-1,2.27,4.42,4.42,0,0,1-3.33,1.32,4.8,4.8,0,0,1,0-9.6,4.6,4.6,0,0,1,3.25,1.29l1.27-1.27a6.29,6.29,0,0,0-4.53-1.82,6.61,6.61,0,1,0,0,13.21,6,6,0,0,0,4.61-1.85,6,6,0,0,0,1.56-4.22,5.87,5.87,0,0,0-.1-1.13h-6.07Zm45.31,1.4a4,4,0,0,0-3.64-2.71,4,4,0,0,0-4,4.25,4.16,4.16,0,0,0,4.22,4.25,4.23,4.23,0,0,0,3.54-1.88l-1.45-1a2.43,2.43,0,0,1-2.09,1.18,2.16,2.16,0,0,1-2.06-1.29l5.69-2.35Zm-5.8,1.42a2.33,2.33,0,0,1,2.22-2.48,1.65,1.65,0,0,1,1.58.9Zm-4.62,4.12h1.87v-12.5h-1.87v12.5Zm-3.06-7.3h-0.06a3,3,0,0,0-2.24-1,4.26,4.26,0,0,0,0,8.51,2.9,2.9,0,0,0,2.24-1h0.06v0.61c0,1.63-.87,2.5-2.27,2.5a2.35,2.35,0,0,1-2.14-1.51l-1.63.68a4.05,4.05,0,0,0,3.77,2.51c2.19,0,4-1.29,4-4.43v-7.64h-1.77v0.69Zm-2.14,5.88a2.59,2.59,0,0,1,0-5.16A2.6,2.6,0,0,1,637.6,324.16ZM662,313.07h-4.47v12.5h1.87v-4.74H662A3.89,3.89,0,1,0,662,313.07Zm0,6h-2.65v-4.29H662A2.14,2.14,0,1,1,662,319.1Zm11.53-1.8a3.5,3.5,0,0,0-3.33,1.91l1.66,0.69a1.77,1.77,0,0,1,1.7-.92,1.8,1.8,0,0,1,2,1.61v0.13a4.13,4.13,0,0,0-1.95-.48c-1.79,0-3.6,1-3.6,2.81a2.89,2.89,0,0,0,3.1,2.75,2.63,2.63,0,0,0,2.38-1.22h0.06v1h1.8v-4.79C677.36,318.54,675.7,317.3,673.56,317.3Zm-0.23,6.85a1.3,1.3,0,0,1-1.46-1.06c0-1,1.06-1.33,2-1.33a3.32,3.32,0,0,1,1.7.42A2.26,2.26,0,0,1,673.34,324.15Zm10.58-6.58L681.78,323h-0.06l-2.22-5.42h-2l3.33,7.58-1.9,4.21h1.95L686,317.57h-2.07Zm-16.81,8H669v-12.5h-1.87v12.5Z" transform="translate(-560.18 -295.57)"/><path class="cls-4" d="M570.61,303.11a2,2,0,0,0-.46,1.4v22.12a2,2,0,0,0,.46,1.4l0.07,0.07,12.39-12.39v-0.29L570.69,303Z" transform="translate(-560.18 -295.57)"/><path class="cls-5" d="M587.21,319.85l-4.13-4.13v-0.29l4.13-4.13,0.09,0.05,4.89,2.78c1.4,0.79,1.4,2.09,0,2.89l-4.89,2.78Z" transform="translate(-560.18 -295.57)"/><path class="cls-6" d="M587.3,319.8l-4.22-4.22L570.61,328a1.63,1.63,0,0,0,2.08.06l14.61-8.3" transform="translate(-560.18 -295.57)"/><path class="cls-7" d="M587.3,311.35L572.69,303a1.63,1.63,0,0,0-2.08.06l12.46,12.46Z" transform="translate(-560.18 -295.57)"/><path class="cls-8" d="M587.21,319.7L572.69,328a1.67,1.67,0,0,1-2,0h0l-0.07.07h0l0.07,0.07h0a1.66,1.66,0,0,0,2,0l14.61-8.3Z" transform="translate(-560.18 -295.57)"/><path class="cls-9" d="M570.61,327.89a2,2,0,0,1-.46-1.4v0.15a2,2,0,0,0,.46,1.4l0.07-.07Z" transform="translate(-560.18 -295.57)"/><path class="cls-9" d="M592.19,316.87l-5,2.83,0.09,0.09,4.89-2.78a1.75,1.75,0,0,0,1-1.44h0A1.86,1.86,0,0,1,592.19,316.87Z" transform="translate(-560.18 -295.57)"/><path class="cls-10" d="M572.69,303.2l19.5,11.08a1.86,1.86,0,0,1,1,1.3h0a1.75,1.75,0,0,0-1-1.44l-19.5-11.08c-1.4-.79-2.54-0.13-2.54,1.47v0.15C570.15,303.06,571.29,302.4,572.69,303.2Z" transform="translate(-560.18 -295.57)"/></svg>