<svg id="Layer_1" data-name="Layer 1" xmlns="http://www.w3.org/2000/svg" width="200" height="150" viewBox="0 0 200 150">
  <defs>
    <style>
      .cls-1 {
        fill: #bdbdbd;
      }
    </style>
  </defs>
  <title>placeholder</title>
  <rect class="cls-1" width="200" height="150"/>
  <g>
    <path d="M478.62,293v-1.94l2.48-2.41c6-5.69,8.67-8.71,8.71-12.24,0-2.38-1.15-4.57-4.64-4.57a8,8,0,0,0-5,2l-1-2.23a10.27,10.27,0,0,1,6.62-2.38c5,0,7.16,3.46,7.16,6.8,0,4.32-3.13,7.81-8.06,12.56L483,290.3v0.07h10.51V293H478.62Z" transform="translate(-440.74 -207.43)"/>
    <path d="M512.64,281c0,8-3,12.35-8.14,12.35-4.57,0-7.67-4.28-7.74-12s3.38-12.17,8.13-12.17C509.83,269.21,512.64,273.6,512.64,281Zm-12.71.36c0,6.08,1.87,9.54,4.75,9.54,3.24,0,4.79-3.78,4.79-9.75,0-5.76-1.48-9.54-4.75-9.54C501.95,271.65,499.93,275,499.93,281.41Z" transform="translate(-440.74 -207.43)"/>
    <path d="M531.1,281c0,8-3,12.35-8.14,12.35-4.57,0-7.67-4.28-7.74-12s3.38-12.17,8.13-12.17C528.3,269.21,531.1,273.6,531.1,281Zm-12.71.36c0,6.08,1.87,9.54,4.75,9.54,3.24,0,4.79-3.78,4.79-9.75,0-5.76-1.48-9.54-4.75-9.54C520.41,271.65,518.4,275,518.4,281.41Z" transform="translate(-440.74 -207.43)"/>
    <path d="M536.51,275.58l2.48,3.74c0.65,1,1.19,1.87,1.76,2.84h0.11c0.58-1,1.15-1.94,1.73-2.88l2.45-3.71h3.42L542.52,284l6.12,9H545l-2.56-3.92c-0.68-1-1.26-2-1.87-3h-0.07c-0.58,1-1.19,2-1.84,3L536.18,293h-3.49l6.19-8.89-5.9-8.53h3.53Z" transform="translate(-440.74 -207.43)"/>
    <path d="M557.57,272.55h-0.07l-4.07,2.2-0.61-2.41,5.11-2.74h2.7V293h-3.06V272.55Z" transform="translate(-440.74 -207.43)"/>
    <path d="M583.12,272.27H574.2l-0.9,6a12.54,12.54,0,0,1,1.91-.14,9.89,9.89,0,0,1,5,1.26,6.67,6.67,0,0,1,3.35,6c0,4.57-3.64,8-8.71,8A11.45,11.45,0,0,1,569,292l0.79-2.41a10.48,10.48,0,0,0,5,1.3c3,0,5.54-1.94,5.54-5.08s-2.05-5.18-6.73-5.18a24.23,24.23,0,0,0-3.24.25l1.51-11.23h11.19v2.66Z" transform="translate(-440.74 -207.43)"/>
    <path d="M603.18,281c0,8-3,12.35-8.14,12.35-4.57,0-7.67-4.28-7.74-12s3.38-12.17,8.13-12.17C600.37,269.21,603.18,273.6,603.18,281Zm-12.71.36c0,6.08,1.87,9.54,4.75,9.54,3.24,0,4.79-3.78,4.79-9.75,0-5.76-1.48-9.54-4.75-9.54C592.48,271.65,590.47,275,590.47,281.41Z" transform="translate(-440.74 -207.43)"/>
  </g>
</svg>
